<mxfile host="" modified="2021-01-31T19:42:13.642Z" agent="5.0 (Windows NT 6.2; Win64; x64) AppleWebKit/537.36 (KHTML, like Gecko) Chrome/84.0.4147.105 Safari/537.36" etag="Oi0b1W5iEoedXdU3zdlQ" version="13.7.9" type="embed"><diagram id="nFHqeYb1Vjg3AZ5FSIf_" name="Page-1"><mxGraphModel dx="721" dy="567" grid="1" gridSize="10" guides="1" tooltips="1" connect="1" arrows="1" fold="1" page="1" pageScale="1" pageWidth="583" pageHeight="413" math="0" shadow="0"><root><mxCell id="0"/><mxCell id="1" parent="0"/><object label="" type="robot" POI="[[70,30],[284,30],[510,30],[70,200],[284,200],[510,200],[70,350],[284,350],[510,350]]" component_Script="[[&quot;Go 0&quot;, &quot;Go 8&quot;, &quot;Go 5&quot;], 5]" id="MUB7im2g7Zm_g3CCuWGE-1"><mxCell style="rounded=0;whiteSpace=wrap;html=1;fillColor=#6a00ff;strokeColor=#3700CC;fontColor=#ffffff;" parent="1" vertex="1"><mxGeometry x="160" y="100" width="32" height="32" as="geometry"/></mxCell></object><object label="" id="MUB7im2g7Zm_g3CCuWGE-2"><mxCell style="ellipse;whiteSpace=wrap;html=1;aspect=fixed;fillColor=#e51400;strokeColor=#B20000;fontColor=#ffffff;" parent="1" vertex="1"><mxGeometry x="70" y="30" width="16" height="16" as="geometry"/></mxCell></object><mxCell id="MUB7im2g7Zm_g3CCuWGE-4" value="" style="ellipse;whiteSpace=wrap;html=1;aspect=fixed;fillColor=#e51400;strokeColor=#B20000;fontColor=#ffffff;" parent="1" vertex="1"><mxGeometry x="70" y="350" width="16" height="16" as="geometry"/></mxCell><mxCell id="MUB7im2g7Zm_g3CCuWGE-5" value="" style="ellipse;whiteSpace=wrap;html=1;aspect=fixed;fillColor=#e51400;strokeColor=#B20000;fontColor=#ffffff;" parent="1" vertex="1"><mxGeometry x="510" y="350" width="16" height="16" as="geometry"/></mxCell><mxCell id="MUB7im2g7Zm_g3CCuWGE-6" value="" style="ellipse;whiteSpace=wrap;html=1;aspect=fixed;fillColor=#e51400;strokeColor=#B20000;fontColor=#ffffff;" parent="1" vertex="1"><mxGeometry x="510" y="30" width="16" height="16" as="geometry"/></mxCell><mxCell id="MUB7im2g7Zm_g3CCuWGE-7" value="" style="ellipse;whiteSpace=wrap;html=1;aspect=fixed;fillColor=#e51400;strokeColor=#B20000;fontColor=#ffffff;" parent="1" vertex="1"><mxGeometry x="284" y="30" width="16" height="16" as="geometry"/></mxCell><mxCell id="MUB7im2g7Zm_g3CCuWGE-8" value="" style="ellipse;whiteSpace=wrap;html=1;aspect=fixed;fillColor=#e51400;strokeColor=#B20000;fontColor=#ffffff;" parent="1" vertex="1"><mxGeometry x="284" y="350" width="16" height="16" as="geometry"/></mxCell><mxCell id="MUB7im2g7Zm_g3CCuWGE-11" value="" style="ellipse;whiteSpace=wrap;html=1;aspect=fixed;fillColor=#e51400;strokeColor=#B20000;fontColor=#ffffff;" parent="1" vertex="1"><mxGeometry x="70" y="199" width="16" height="16" as="geometry"/></mxCell><mxCell id="MUB7im2g7Zm_g3CCuWGE-12" value="" style="ellipse;whiteSpace=wrap;html=1;aspect=fixed;fillColor=#e51400;strokeColor=#B20000;fontColor=#ffffff;" parent="1" vertex="1"><mxGeometry x="510" y="199" width="16" height="16" as="geometry"/></mxCell><mxCell id="MUB7im2g7Zm_g3CCuWGE-13" value="" style="ellipse;whiteSpace=wrap;html=1;aspect=fixed;fillColor=#e51400;strokeColor=#B20000;fontColor=#ffffff;" parent="1" vertex="1"><mxGeometry x="284" y="199" width="16" height="16" as="geometry"/></mxCell></root></mxGraphModel></diagram></mxfile>